Simulation
nRows=36
nColumns=15
endheader
time  TH_x TH_y TH_z SC_y  SC_z  SC_x  AC_y  AC_z  AC_x  GH_y  GH_z  GH_yy  EL_x  PS_y
0.0  0.000000  0.000000  0.000000  -27.990824696406456  -1.228943784795392  5.360243037669569  55.0427506474937  2.81178203467558  -8.04829811817263  29.042291898107443  6.241603113090555  12.484027542683219  26.82327034935663  0.000000
0.039  0.000000  0.000000  0.000000  -27.472463643694734  -0.6967540191228431  5.072473481233299  54.045303329668826  3.1934811645005774  -8.170717576401564  29.266092249417515  5.414200149790288  12.555127622973039  26.47667172994184  0.000000
0.078  0.000000  0.000000  0.000000  -26.967479164554742  -0.4225769788708522  4.815515524748661  53.26700486796089  3.331092014396578  -8.181190058458785  29.70460556522085  4.7088238451927085  12.452916805717699  25.763481495889987  0.000000
0.11699999999999999  0.000000  0.000000  0.000000  -26.871037883202987  -0.2790689997893592  4.725868701264339  52.94594888531933  3.165009050654737  -8.138817622791848  30.29373675088938  4.456716237597657  12.089883781547847  25.221350693814717  0.000000
0.156  0.000000  0.000000  0.000000  -26.871021915436724  -0.18312466762741206  4.8072391635799985  52.8968552262023  2.8375637813684045  -8.080226808950702  30.908056295254607  4.612745530787208  11.424782142917248  24.894787486266054  0.000000
0.195  0.000000  0.000000  0.000000  -26.904564373547974  -0.0948472868047748  5.019125620007426  53.02623521134583  2.4455833605469683  -7.9958219291819725  31.503188273715626  5.166749781223286  10.473476990989203  24.700302988585324  0.000000
0.23399999999999999  0.000000  0.000000  0.000000  -26.951422485281135  -0.010941381253308742  5.313770526435307  53.265331317281074  2.0470969876391156  -7.87886409281941  32.06052202064592  6.091299039613233  9.241566599342779  24.616273543937137  0.000000
0.273  0.000000  0.000000  0.000000  -27.026125252150987  0.07270587092099313  5.648490762190029  53.641331463574595  1.6563467906845277  -7.694136870388277  32.60640414785602  7.361917688514846  7.743620087237141  24.592478506674986  0.000000
0.312  0.000000  0.000000  0.000000  -27.15059005279325  0.1427465906549744  5.991210617183799  54.162380622280764  1.32519771624341  -7.412222974353206  33.172584131083134  8.91958700039936  5.9819318274238285  24.630495979857237  0.000000
0.351  0.000000  0.000000  0.000000  -27.326699153644537  0.19064564122805422  6.297338322212235  54.86256924295515  1.1003568943576265  -7.013412061280704  33.78765610475086  10.735959774263243  3.9432899005825193  24.714540038150243  0.000000
0.39  0.000000  0.000000  0.000000  -27.538533939048712  0.2127361018152699  6.548376697853412  55.70172460637206  1.0269264349252618  -6.4937352206368955  34.48538337447884  12.770898595071401  1.6324864198762261  24.83802866681419  0.000000
0.429  0.000000  0.000000  0.000000  -27.765885747286582  0.22090163278656907  6.74417754493916  56.650345011106204  1.1015625404000544  -5.879097977617866  35.27860333565564  15.00391383105769  -0.9483693397802297  24.976084509014875  0.000000
0.46799999999999997  0.000000  0.000000  0.000000  -27.98708932052048  0.2202833456410142  6.8930619695628925  57.6573305244353  1.318704716616861  -5.207920375553423  36.159570337733456  17.38901142706509  -3.7681762762164053  25.11253615357442  0.000000
0.507  0.000000  0.000000  0.000000  -28.189389998099422  0.2176353070322118  7.023819757627358  58.682306896718  1.6688893360371775  -4.525144697024347  37.11014045325572  19.871578805334487  -6.76205795637631  25.22213499889554  0.000000
0.546  0.000000  0.000000  0.000000  -28.365076380205984  0.23512731110249283  7.174785010567023  59.68745255986811  2.1317205912299713  -3.8756049082909287  38.09595355077728  22.40749010813954  -9.848127921744283  25.299601995312106  0.000000
0.585  0.000000  0.000000  0.000000  -28.50267538053258  0.2957391681515752  7.378034268213869  60.635528057230644  2.6814640711892075  -3.280597193576382  39.081849153882786  24.95312236497256  -12.938737745007037  25.334926552143898  0.000000
0.624  0.000000  0.000000  0.000000  -28.60145844529891  0.4077953843149474  7.649628768621618  61.51055560998815  3.2842911600265707  -2.744538359974303  40.038385782311444  27.48720173197108  -15.96042589736907  25.33309123672945  0.000000
0.663  0.000000  0.000000  0.000000  -28.664429261016508  0.5765044865847007  7.9888961781516405  62.30475447915619  3.909126095561852  -2.253311385440171  40.93715948515773  29.996271693859647  -18.86445987602061  25.29881237880598  0.000000
0.702  0.000000  0.000000  0.000000  -28.70683973271874  0.7938784771156577  8.390549197810818  63.029451826465056  4.543086167867308  -1.7953573926542397  41.75727882870449  32.46486240194469  -21.61178501736119  25.239600668158918  0.000000
0.741  0.000000  0.000000  0.000000  -28.745071399441382  1.0474872915793387  8.842548439044775  63.69035936523403  5.179460129338969  -1.3617299099167222  42.488435083802685  34.8808553156778  -24.17530003374662  25.16281945126242  0.000000
0.78  0.000000  0.000000  0.000000  -28.787226783455015  1.3271126024381472  9.331393850650976  64.28962221668826  5.817569193258588  -0.9470650070887685  43.13135869652085  37.230168039112925  -26.538742744587314  25.076832787735352  0.000000
0.819  0.000000  0.000000  0.000000  -28.83965050822156  1.6252699145976963  9.84406623524708  64.81733383407202  6.452762612707906  -0.5535359336702331  43.69854016887109  39.50930456355939  -28.692137747805162  24.992007392255903  0.000000
0.858  0.000000  0.000000  0.000000  -28.90862478795663  1.9362194743279366  10.373150632436685  65.26483875066165  7.078311953773849  -0.18579210669513918  44.20568132650399  41.71400870403391  -30.63525716325651  24.91796440038256  0.000000
0.897  0.000000  0.000000  0.000000  -28.993460122995632  2.255468489077707  10.913970232911593  65.6209451958084  7.688897582764649  0.15031196412925776  44.667562335681545  43.83865448791791  -32.374858461223006  24.857895997408807  0.000000
0.9359999999999999  0.000000  0.000000  0.000000  -29.092921583844227  2.5807801095580967  11.46401526344792  65.8836427722612  8.282177463802775  0.45399125447430544  45.0926196073733  45.872014358763714  -33.925283055707716  24.80845312983589  0.000000
0.975  0.000000  0.000000  0.000000  -29.206999437142432  2.9144750640202295  12.019644914603957  66.05257759327787  8.853809647658137  0.7314052543727153  45.485379473120254  47.802506954857876  -35.30173273852519  24.76373048262575  0.000000
1.014  0.000000  0.000000  0.000000  -29.33503953830342  3.2622451133137504  12.571514470297856  66.129818700036  9.40522078605119  0.9960512188532935  45.84631205300257  49.618915469999905  -36.52100708075973  24.71880258753189  0.000000
1.053  0.000000  0.000000  0.000000  -29.471719240117608  3.6275807759833074  13.100643731084942  66.11769743480437  9.959112593206754  1.2637992308828707  46.17059485005703  51.31519381961298  -37.605082657459974  24.668374937772974  0.000000
1.092  0.000000  0.000000  0.000000  -29.617473336228155  4.013965890831122  13.5944376593771  66.02377231365546  10.544795157486208  1.554145084238711  46.449475189249796  52.88522991221309  -38.57856873624466  24.61044228597981  0.000000
1.131  0.000000  0.000000  0.000000  -29.775814065386452  4.4249516901714525  14.050284356000503  65.85154168986439  11.174371647179731  1.8799990626342202  46.682787831403374  54.32847316561609  -39.4613890166965  24.547264363237446  0.000000
1.17  0.000000  0.000000  0.000000  -29.933147286892694  4.8524258378339535  14.460113938113846  65.59970153106696  11.856678597410408  2.243581215921365  46.87464871447069  55.64449353917742  -40.265326983356  24.471850606682914  0.000000
1.209  0.000000  0.000000  0.000000  -30.075953662293422  5.294453748754187  14.802818244795576  65.2648642205585  12.610239426882963  2.6590749451835114  47.03325355342042  56.8228321808982  -40.998087470162304  24.376194686257293  0.000000
1.248  0.000000  0.000000  0.000000  -30.213191121631674  5.749368571737704  15.069208243336146  64.85607711362961  13.434201193705624  3.1423678797607035  47.16961064543562  57.85665335924673  -41.6598333618073  24.2592347428361  0.000000
1.287  0.000000  0.000000  0.000000  -30.35024078234433  6.200708025956815  15.290991822138341  64.39833390554693  14.282259720132645  3.678387138759603  47.28715248407269  58.751428072883044  -42.23969122628344  24.116717481150346  0.000000
1.326  0.000000  0.000000  0.000000  -30.48970570080408  6.627028830640271  15.518859782246686  63.940502490872106  15.086425412665704  4.236971395200649  47.37158183821377  59.51794971554965  -42.71760473332013  23.942207305758544  0.000000
1.365  0.000000  0.000000  0.000000  -30.64772188307943  7.018714087276176  15.786558117971758  63.53361286405478  15.793177628730222  4.79986869779006  47.408769942923264  60.174718401955516  -43.082711814777255  23.730813179831067  0.000000
